<svg xmlns="http://www.w3.org/2000/svg" viewBox="0 0 100 100" preserveAspectRatio="xMidYMid" width="135" height="135" style="shape-rendering: auto; display: block; background: rgb(255, 255, 255);" xmlns:xlink="http://www.w3.org/1999/xlink"><g><g transform="translate(50 50)">
<g>
<animateTransform repeatCount="indefinite" dur="0.33444816053511706s" keyTimes="0;1" values="0;40" type="rotate" attributeName="transform"></animateTransform><path fill="#5be1d7" d="M4.330127018922193 -5.5 L12.330127018922193 -5.5 L12.330127018922193 5.5 L4.330127018922193 5.5 A7 7 0 0 1 6.852401594120659 -1.4298924410222826 L6.852401594120659 -1.4298924410222826 L12.980757139072484 3.7124084364700316 L5.91009343252055 12.138897310778791 L-0.2182621124312739 6.996596433286476 A7 7 0 0 1 6.168361307469321 3.309277682594099 L6.168361307469321 3.309277682594099 L7.557546728804764 11.187739706691763 L-3.275338554329524 13.097869661028 L-4.6645239756649675 5.219407636930335 A7 7 0 0 1 2.598076211353318 6.499999999999999 L2.598076211353318 6.499999999999999 L-1.4019237886466804 13.428203230275509 L-10.928203230275507 7.9282032302755105 L-6.928203230275509 1.0000000000000009 A7 7 0 0 1 -2.1878776184556887 6.649300077952616 L-2.1878776184556887 6.649300077952616 L-9.705418584742954 9.385461224557966 L-13.467640161325313 -0.951157604087026 L-5.950099195038047 -3.6873187506923766 A7 7 0 0 1 -5.950099195038046 3.687318750692378 L-5.950099195038046 3.687318750692378 L-13.467640161325315 0.95115760408703 L-9.705418584742963 -9.385461224557963 L-2.1878776184556936 -6.649300077952614 A7 7 0 0 1 -6.92820323027551 -0.9999999999999962 L-6.92820323027551 -0.9999999999999962 L-10.928203230275514 -7.928203230275504 L-1.4019237886466898 -13.428203230275509 L2.598076211353314 -6.500000000000001 A7 7 0 0 1 -4.66452397566497 -5.219407636930331 L-4.66452397566497 -5.219407636930331 L-3.27533855432953 -13.097869661027996 L7.557546728804761 -11.187739706691765 L6.16836130746932 -3.309277682594101 A7 7 0 0 1 -0.21826211243127716 -6.996596433286475 L-0.21826211243127716 -6.996596433286475 L5.910093432520546 -12.138897310778791 L12.980757139072482 -3.712408436470035 L6.852401594120659 1.4298924410222809 A7 7 0 0 1 4.330127018922192 -5.500000000000002 M0 -22A22 22 0 1 0 0 22 A22 22 0 1 0 0 -22"></path></g></g><g></g></g><!-- [ldio] generated by https://loading.io --></svg>